{"title":"The Scorpion King(2002)MPEG-4(720p)[DaScubaDude]","uid":13234608,"size":909733860,"categoryP":"video","categoryS":"movies","magnet":"?xt=urn:btih:d8674b84f8920043541bbe4416cd197ddd8cd9a3&amp;dn=The+Scorpion+King%282002%29MPEG-4%28720p%29%5BDaScubaDude%5D&amp;tr=udp%3A%2F%2Ftracker.leechers-paradise.org%3A6969&amp;tr=udp%3A%2F%2Fzer0day.ch%3A1337&amp;tr=udp%3A%2F%2Fopen.demonii.com%3A1337&amp;tr=udp%3A%2F%2Ftracker.coppersurfer.tk%3A6969&amp;tr=udp%3A%2F%2Fexodus.desync.com%3A6969","seeders":0,"leechers":0,"uploader":"dascuba","files":1,"time":1452988233,"description":"The Scorpion King (2002)\r\nPG-13  |  92 min  |  Action, Adventure, Fantasy  |  19 April 2002 (USA)\r\n5.5 Your rating:   -/10   Ratings: 5.5/10 from 96,651 users   Metascore: 45/100 \r\nReviews: 432 user | 167 critic | 30 from Metacritic.com\r\nA desert warrior rises up against the evil army that is destroying his homeland. He captures the enemy's key sorcerer, takes her deep into the desert and prepares for a final showdown.\r\n\r\nDirector: Chuck Russell\r\nWriters: Stephen Sommers (story), Jonathan Hales (story), 4 more credits »\r\nStars: Dwayne Johnson, Steven Brand, Michael Clarke Duncan \r\n\r\nGeneral\r\nComplete name                            :The Scorpion KingSCORPION_KING_WIDE_Title1.mp4\r\nFormat                                   : MPEG-4\r\nFormat profile                           : Base Media\r\nCodec ID                                 : isom\r\nFile size                                : 868 MiB\r\nDuration                                 : 1h 31mn\r\nOverall bit rate                         : 1 327 Kbps\r\nMovie name                               : SCORPION_KING_WIDE\r\nGenre                                    : Adventure\r\nWriting application                      : Lavf54.6.100\r\n\r\nVideo\r\nID                                       : 1\r\nFormat                                   : AVC\r\nFormat/Info                              : Advanced Video Codec\r\nFormat profile                           :   \r\nFormat settings, CABAC                   : No\r\nFormat settings, ReFrames                : 6 frames\r\nCodec ID                                 : avc1\r\nCodec ID/Info                            : Advanced Video Coding\r\nDuration                                 : 1h 31mn\r\nBit rate                                 : 1 192 Kbps\r\nWidth                                    : 720 pixels\r\nHeight                                   : 404 pixels\r\nDisplay aspect ratio                     : 16:9\r\nFrame rate mode                          : Constant\r\nFrame rate                               : 29.970 fps\r\nColor space                              : YUV\r\nChroma subsampling                       : 4:2:0\r\nBit depth                                : 8 bits\r\nScan type                                : Progressive\r\nBits/(Pixel*Frame)                       : 0.137\r\nStream size                              : 780 MiB (90%)\r\n\r\nAudio\r\nID                                       : 2\r\nFormat                                   : AAC\r\nFormat/Info                              : Advanced Audio Codec\r\nFormat profile                           : LC\r\nCodec ID                                 : 40\r\nDuration                                 : 1h 31mn\r\nBit rate mode                            : Constant\r\nBit rate                                 : 128 Kbps\r\nChannel(s)                               : 2 channels\r\nChannel positions                        : Front: L R\r\nSampling rate                            : 44.1 KHz\r\nCompression mode                         : Lossy\r\nStream size                              : 83.4 MiB (10%)","torrent":{"xt":"urn:btih:d8674b84f8920043541bbe4416cd197ddd8cd9a3","amp;dn":"The+Scorpion+King%282002%29MPEG-4%28720p%29%5BDaScubaDude%5D","amp;tr":["udp%3A%2F%2Ftracker.leechers-paradise.org%3A6969","udp%3A%2F%2Fzer0day.ch%3A1337","udp%3A%2F%2Fopen.demonii.com%3A1337","udp%3A%2F%2Ftracker.coppersurfer.tk%3A6969","udp%3A%2F%2Fexodus.desync.com%3A6969"],"infoHash":"d8674b84f8920043541bbe4416cd197ddd8cd9a3","infoHashBuffer":{"type":"Buffer","data":[216,103,75,132,248,146,0,67,84,27,190,68,22,205,25,125,221,140,217,163]},"announce":[],"urlList":[]}}